<svg version="1.1" xmlns="http://www.w3.org/2000/svg" viewBox="0 0 1185.6858475041893 948.2050955295563" width="1185.6858475041893" height="948.2050955295563">
  <!-- svg-source:excalidraw -->
  
  <defs>
    <style>
      @font-face {
        font-family: "Virgil";
        src: url("https://excalidraw.com/Virgil.woff2");
      }
      @font-face {
        font-family: "Cascadia";
        src: url("https://excalidraw.com/Cascadia.woff2");
      }
    </style>
  </defs>
  <rect x="0" y="0" width="1185.6858475041893" height="948.2050955295563" fill="#ffffff"></rect><g stroke-linecap="round" transform="translate(429.5 227) rotate(0 52 96)"><path d="M1.62 0.24 C24.38 0.47, 50.94 0.98, 105 -1.62 M-0.07 0.2 C21.63 -0.11, 44.87 -0.09, 104.54 -0.72 M103.46 -0.99 C100.85 64.29, 102.22 129.59, 105.35 190.85 M103.73 -0.81 C104.57 68.26, 104.36 135.99, 104.19 191.49 M103.4 190.11 C78.76 191.15, 59.12 192.53, -0.62 191.66 M104.45 191.57 C74.92 191.8, 44.49 191.43, 0.05 192.18 M-1.35 191.44 C-1.61 150.7, 0.01 106.35, -0.69 -0.85 M0.13 191.5 C-1.52 142.93, -0.18 93.4, 0.66 -0.91" stroke="#000000" stroke-width="1" fill="none"></path></g><g stroke-linecap="round" transform="translate(459.5 204) rotate(0 52 96)"><path d="M-1.65 0.91 C26.42 0.8, 48.43 1.51, 103.86 1.45 M0.19 -0.78 C36.35 1.1, 72.3 -0.01, 104.53 -0.9 M102.06 -1.01 C102.09 67.06, 101.34 134.91, 104.08 190.63 M103.88 -0.22 C102.63 69.8, 103.69 141.86, 104.58 192.77 M103.35 191.5 C70.21 189.32, 35.7 190.62, 1.76 192.78 M103.68 191.16 C76.48 191.4, 48.46 192.5, -0.56 192.31 M0.91 190.44 C-1.7 132.8, -1.09 75.74, 0.89 -1.02 M0.58 191.56 C0.95 140.5, 0.4 90.56, 0.92 0.65" stroke="#000000" stroke-width="1" fill="none"></path></g><g stroke-linecap="round" transform="translate(448 216) rotate(0 52 96)"><path d="M-1.23 1.16 C33.53 -0.54, 69.33 0.78, 102.61 -1.8 M-0.11 0.81 C28.09 1.41, 54.78 0.87, 103.54 0.82 M104.18 -1.12 C106.78 67.09, 103.63 131.4, 104.86 191.41 M104.11 -0.2 C104.69 66.8, 105.52 135.57, 103.44 192.12 M102.06 192.74 C63.27 194.38, 23.77 191.63, 0.72 190.51 M104.8 192.83 C65.05 192.19, 23.89 190.87, 0.63 192.14 M1.1 193.2 C1.09 138.8, 3.13 82.73, 1.21 0.05 M0.69 192.12 C-0.78 139.31, -0.4 87.1, 0.16 0.34" stroke="#000000" stroke-width="1" fill="none"></path></g><g stroke-linecap="round" transform="translate(173 625.0922889709473) rotate(0 49.5 95.5)"><path d="M1.2 0.88 C22.13 -0.82, 40.98 0.04, 100.68 -1.29 M-0.08 0.25 C22.61 -0.31, 44.89 0.21, 99.64 0.28 M98.95 1.1 C100.21 50.82, 98.67 101.64, 99.08 192.47 M98.87 0.21 C100.32 61.05, 99.64 121.52, 98.4 190.19 M99.26 189.27 C59.94 188.45, 24.15 191.49, 1.35 192.87 M98.94 191.46 C60.24 191.78, 23.73 191.92, 0.65 191.15 M-0.25 190.61 C-0.58 118.27, 0.21 45.35, 1.78 -0.4 M0.84 191.44 C0.49 139.5, 0.01 87.17, -0.42 0.86" stroke="#000000" stroke-width="1" fill="none"></path></g><g transform="translate(186 711.0922889709473) rotate(0 34 12.5)"><text x="0" y="18" font-family="Virgil, Segoe UI Emoji" font-size="20px" fill="#000000" text-anchor="start" style="white-space: pre;" direction="ltr"> VM #1</text></g><g stroke-linecap="round" transform="translate(327.5 626.5922889709473) rotate(0 49.5 95.5)"><path d="M-0.37 -0.93 C28.71 -1.58, 59 -1.25, 100.44 -0.19 M-0.27 -0.03 C30 -0.86, 60.43 -1.52, 99.66 0.84 M98.31 0.15 C101.61 74.36, 99.34 150.16, 98.37 191.42 M99.31 -0.84 C98.72 51.25, 98.06 99.96, 98.99 191.62 M97.75 192.92 C72.48 190.43, 48.44 190.64, -0.26 192.84 M98.86 191.6 C58.98 192.61, 20.44 190.74, -0.92 190.19 M1.05 191.09 C-0.7 132.76, -1.9 76.17, -0.46 -0.69 M-0.72 191.29 C-0.93 122.05, -1.22 51.85, 0.86 -0.49" stroke="#000000" stroke-width="1" fill="none"></path></g><g transform="translate(340.5 712.5922889709473) rotate(0 38.5 12.5)"><text x="0" y="18" font-family="Virgil, Segoe UI Emoji" font-size="20px" fill="#000000" text-anchor="start" style="white-space: pre;" direction="ltr"> VM #2</text></g><g stroke-linecap="round" transform="translate(469.5 626.5922889709473) rotate(0 49.5 95.5)"><path d="M0.09 0.86 C36.85 -0.86, 75.35 -0.98, 98.31 1.32 M0.29 -0.32 C33.85 0.11, 66.45 1.57, 98.51 0.03 M97.55 -1.73 C101.38 49.27, 100.04 94.83, 97.65 191.73 M99.24 -0.84 C98.96 59.22, 98.57 119.58, 98.93 191.52 M97.26 191.13 C61.03 190.15, 24.04 192.16, -0.75 192.09 M99.58 191.3 C59.06 190.62, 20.39 190.57, -0.89 191.44 M0.25 189.02 C0.36 140.64, -0.8 94.79, -1.05 -0.77 M0.55 190.4 C-2.65 117.67, -1.09 41.73, 0.17 -0.52" stroke="#000000" stroke-width="1" fill="none"></path></g><g transform="translate(482.5 712.5922889709473) rotate(0 38 12.5)"><text x="0" y="18" font-family="Virgil, Segoe UI Emoji" font-size="20px" fill="#000000" text-anchor="start" style="white-space: pre;" direction="ltr"> VM #3</text></g><g stroke-linecap="round" transform="translate(625.5 627.5922889709473) rotate(0 49.5 95.5)"><path d="M-0.71 -1.5 C25.46 0.42, 50.95 -0.48, 97.87 1.01 M0.05 0.57 C30.03 -0.24, 58.3 -1.29, 99.83 -0.38 M100.61 -1.09 C97.86 47.45, 98.91 94.88, 100.5 190.05 M98.41 -0.8 C100.64 76.16, 100.52 151.21, 98.95 190.47 M97.54 191.23 C60.64 189.75, 24.91 191.95, -1.56 190.95 M98.7 190.25 C79.12 189.33, 58.39 190.86, 0.69 191.19 M-0.54 192 C0.35 135.29, 0.28 82.62, 0.89 0.85 M-0.55 191.76 C2.28 120.34, 0.55 52.16, 0.13 0.82" stroke="#000000" stroke-width="1" fill="none"></path></g><g transform="translate(629.5 715.5922889709473) rotate(0 44.5 12.5)"><text x="0" y="18" font-family="Virgil, Segoe UI Emoji" font-size="20px" fill="#000000" text-anchor="start" style="white-space: pre;" direction="ltr"> VM #N-1</text></g><g stroke-linecap="round" transform="translate(773.5 626.5922889709473) rotate(0 49.5 95.5)"><path d="M1.96 -0.13 C25.36 -0.08, 52.02 -1.2, 100.61 -1.26 M-0.41 0.92 C24.38 -0.26, 49.01 0.3, 98.79 0.33 M97.03 -0.6 C99.42 56.26, 102.14 115.94, 98.89 190.91 M98.84 -0.12 C99.59 73.77, 100.08 146.98, 99.91 191.64 M98.13 192.82 C76 190.31, 54.99 191, -1.61 191.28 M99.53 191.57 C76.98 191.01, 55.91 191.48, -0.23 191.07 M1.98 189.02 C0.29 133.41, -0.07 78.23, 0.65 -2 M-0.41 190.15 C1.14 123.49, 0.44 54.84, -0.87 -0.88" stroke="#000000" stroke-width="1" fill="none"></path></g><g transform="translate(786.5 712.5922889709473) rotate(0 34 12.5)"><text x="0" y="18" font-family="Virgil, Segoe UI Emoji" font-size="20px" fill="#000000" text-anchor="start" style="white-space: pre;" direction="ltr"> VM #1</text></g><g transform="translate(588 712.0922889709473) rotate(0 8.5 12.5)"><text x="0" y="18" font-family="Virgil, Segoe UI Emoji" font-size="20px" fill="#000000" text-anchor="start" style="white-space: pre;" direction="ltr">...</text></g><g stroke-linecap="round" transform="translate(147 605.0922889709473) rotate(0 224.5 140)"><path d="M-0.27 0.48 C94.59 0.92, 190.87 2.46, 449.51 0.57 M-0.15 -0.46 C153.32 0.69, 307.06 0.48, 449.35 0.18 M449.37 1.44 C446.85 84.88, 448.79 173.27, 448.85 279.82 M449.28 0.47 C450.6 57.2, 449.82 115.53, 449.44 279.65 M448.07 280.16 C347.94 278.65, 248.51 278.89, 0.13 280.56 M448.78 279.84 C284.85 279.54, 120.35 279.76, 0.22 279.84 M-1.32 280.43 C-0.58 171.24, -0.22 62.88, 0.69 0.18 M0.22 279.71 C1.71 187.81, 1.22 95.75, -0.75 -0.58" stroke="#000000" stroke-width="1" fill="none"></path></g><g transform="translate(189 844.0922889709473) rotate(0 66.5 12.5)"><text x="0" y="18" font-family="Virgil, Segoe UI Emoji" font-size="20px" fill="#000000" text-anchor="start" style="white-space: pre;" direction="ltr">Control Plane</text></g><g stroke-linecap="round" transform="translate(604 605.0922889709473) rotate(0 154 139.5)"><path d="M0.79 -0.93 C70.27 -0.97, 142.51 -1.06, 308.43 -0.08 M-0.68 -0.05 C68.99 0.59, 138.02 1.48, 307.45 -0.3 M307.6 0.51 C310.49 93.34, 308.11 186.76, 306.67 279.8 M307.76 -0.14 C306.8 109.55, 307.59 219.81, 308.4 278.32 M307.71 278.12 C239.16 277.74, 171.66 277.79, -1.29 279.38 M307.69 278.81 C198.34 277.49, 89.88 278.16, -0.61 279.65 M1.01 278.4 C-3.07 177.94, -1.73 79.55, 0.62 0.85 M0.29 279.07 C-1.14 173.18, -1.1 66.02, -0.56 0.44" stroke="#000000" stroke-width="1" fill="none"></path></g><g transform="translate(726 843.0922889709473) rotate(0 64 12.5)"><text x="0" y="18" font-family="Virgil, Segoe UI Emoji" font-size="20px" fill="#000000" text-anchor="start" style="white-space: pre;" direction="ltr">Worker nodes</text></g><g stroke-linecap="round" transform="translate(404 238) rotate(0 52 96)"><path d="M-0.11 1.63 L104.16 1.73 L105.21 190.72 L-0.06 192.51" stroke="none" stroke-width="0" fill="#ced4da"></path><path d="M-1.64 -0.4 C38.2 0.91, 78.93 1.07, 104.07 -0.16 M0.85 -0.36 C31.92 0.57, 64.74 0.38, 103.77 0.02 M105.23 -0.75 C101.51 73.8, 104 143.96, 103.39 193.36 M103.24 -0.08 C105.03 55.52, 105.49 111.48, 104.45 191.07 M104.16 191.84 C80.48 191.8, 51.59 194.3, -1.24 192.36 M104.43 192.91 C70.52 190.72, 36.31 191.81, 0.75 192.91 M1.22 190.7 C1.24 147.67, 0.92 101.25, -0.11 1.62 M0.71 191.25 C0.19 142.76, 0.43 91.77, 0.89 0.95" stroke="#000000" stroke-width="1" fill="none"></path></g><g transform="translate(409 271.5) rotate(0 47 62.5)"><text x="47" y="18" font-family="Virgil, Segoe UI Emoji" font-size="20px" fill="#000000" text-anchor="middle" style="white-space: pre;" direction="ltr">CAPI </text><text x="47" y="43" font-family="Virgil, Segoe UI Emoji" font-size="20px" fill="#000000" text-anchor="middle" style="white-space: pre;" direction="ltr">Machine </text><text x="47" y="68" font-family="Virgil, Segoe UI Emoji" font-size="20px" fill="#000000" text-anchor="middle" style="white-space: pre;" direction="ltr">with</text><text x="47" y="93" font-family="Virgil, Segoe UI Emoji" font-size="20px" fill="#000000" text-anchor="middle" style="white-space: pre;" direction="ltr">MicroK8s</text><text x="47" y="118" font-family="Virgil, Segoe UI Emoji" font-size="20px" fill="#000000" text-anchor="middle" style="white-space: pre;" direction="ltr">Config</text></g><g stroke-linecap="round" transform="translate(10 146) rotate(0 128.5 68)"><path d="M-1.01 -0.06 C96 -0.34, 193.65 1.64, 257.69 -0.97 M-0.59 0.53 C79.7 -0.42, 159.01 -1.03, 256.97 0.76 M256.63 1.55 C254.81 33.94, 256.78 70.09, 257.97 137.03 M257.65 0.53 C257.37 30.3, 257.6 60.75, 256.39 136.54 M256.93 136.77 C196.03 135.09, 134.96 135.1, -0.22 136.37 M257.75 136.61 C175.41 136.52, 92.89 136.07, 0.09 135.8 M-1.98 136.64 C0.29 87.21, -2.02 35.56, -0.59 0.13 M-0.37 135.94 C-0.01 95.1, 0.85 54.64, -0.79 -0.87" stroke="#000000" stroke-width="1" fill="none"></path></g><g transform="translate(81 177) rotate(0 51 37.5)"><text x="51" y="18" font-family="Virgil, Segoe UI Emoji" font-size="20px" fill="#000000" text-anchor="middle" style="white-space: pre;" direction="ltr">MicroK8s</text><text x="51" y="43" font-family="Virgil, Segoe UI Emoji" font-size="20px" fill="#000000" text-anchor="middle" style="white-space: pre;" direction="ltr">Bootstrap</text><text x="51" y="68" font-family="Virgil, Segoe UI Emoji" font-size="20px" fill="#000000" text-anchor="middle" style="white-space: pre;" direction="ltr">Provider</text></g><g stroke-linecap="round"><g transform="translate(267 207) rotate(0 73.99597872234881 64.33369624120184)"><path d="M-0.66 -0.12 C24.19 21.41, 123.62 108.49, 148.66 129.9 M1.19 -1.23 C25.89 19.92, 122.88 106.49, 147.53 128.25" stroke="#000000" stroke-width="1" fill="none"></path></g><g transform="translate(267 207) rotate(0 73.99597872234881 64.33369624120184)"><path d="M119.43 116.64 C128.53 121.19, 133.27 124.39, 149.26 127.93 M120.35 116.98 C126.01 118.7, 130.57 121.61, 148.29 127.71" stroke="#000000" stroke-width="1" fill="none"></path></g><g transform="translate(267 207) rotate(0 73.99597872234881 64.33369624120184)"><path d="M133.05 101.29 C138.66 109.81, 139.81 117.04, 149.26 127.93 M133.97 101.64 C136.83 106.52, 138.64 112.52, 148.29 127.71" stroke="#000000" stroke-width="1" fill="none"></path></g></g><g transform="translate(280 233) rotate(43.21008939175394 51 25)"><text x="51" y="18" font-family="Virgil, Segoe UI Emoji" font-size="20px" fill="#000000" text-anchor="middle" style="white-space: pre;" direction="ltr">Bootstrap</text><text x="51" y="43" font-family="Virgil, Segoe UI Emoji" font-size="20px" fill="#000000" text-anchor="middle" style="white-space: pre;" direction="ltr"> secret</text></g><g stroke-linecap="round" transform="translate(326 478) rotate(0 181.5 45.5)"><path d="M-0.75 -0.91 C93.53 -1.87, 186.19 -1.84, 361.81 -0.52 M-0.44 -0.5 C106.51 0.34, 213.64 0.77, 362.37 -0.06 M361.35 -1.38 C363.66 34.1, 362.93 66.8, 361.56 91.9 M362.08 -0.66 C363.13 20.69, 362.26 43.4, 363.18 91.41 M362.67 91.95 C251.44 91.31, 142.53 92.39, 0.26 90.4 M363.47 91.51 C270.88 89.89, 180.18 89.14, 0.23 90.59 M0.44 91.98 C1.37 66.1, 1.37 43.75, -0.85 -1.76 M-0.68 91.93 C0.21 67.87, 0.63 45.18, -0.77 -0.45" stroke="#000000" stroke-width="1" fill="none"></path></g><g transform="translate(331 511) rotate(0 176.5 12.5)"><text x="176.5" y="18" font-family="Virgil, Segoe UI Emoji" font-size="20px" fill="#000000" text-anchor="middle" style="white-space: pre;" direction="ltr">Infrastructure Provider</text></g><g stroke-linecap="round"><g transform="translate(481.5348018749885 441) rotate(0 0.6852803879227736 11.93784658100455)"><path d="M0.48 0.16 C1 3.89, 1.96 19.36, 2.1 23.43 M-0.73 -0.8 C-0.23 3.59, 1.2 20.77, 1.37 24.67" stroke="#000000" stroke-width="1" fill="none"></path></g><g transform="translate(481.5348018749885 441) rotate(0 0.6852803879227736 11.93784658100455)"><path d="M-3.34 14.09 C-2.94 15.6, -0.72 18.16, 0.2 24.4 M-3.59 13.32 C-1.85 16.95, -0.04 21.78, 1.46 24.43" stroke="#000000" stroke-width="1" fill="none"></path></g><g transform="translate(481.5348018749885 441) rotate(0 0.6852803879227736 11.93784658100455)"><path d="M4.87 13.53 C3.53 15.19, 4 17.87, 0.2 24.4 M4.62 12.76 C3.49 16.55, 2.44 21.58, 1.46 24.43" stroke="#000000" stroke-width="1" fill="none"></path></g></g><g stroke-linecap="round"><g transform="translate(460.3405210323599 572) rotate(0 -95.66088305268278 51.797821600604834)"><path d="M-0.31 0.21 C-32.24 17.53, -160 87.16, -191.84 104.32 M1.73 -0.72 C-30.38 16.18, -160.74 84.91, -193.05 102.36" stroke="#000000" stroke-width="1" fill="none"></path></g><g transform="translate(460.3405210323599 572) rotate(0 -95.66088305268278 51.797821600604834)"><path d="M-172.63 79.22 C-177.95 86.16, -185.51 90.87, -194.98 104.15 M-172.72 80.19 C-180.35 88.8, -186.3 94.82, -193.05 103.23" stroke="#000000" stroke-width="1" fill="none"></path></g><g transform="translate(460.3405210323599 572) rotate(0 -95.66088305268278 51.797821600604834)"><path d="M-162.99 97.33 C-171.05 99.22, -181.29 98.89, -194.98 104.15 M-163.07 98.31 C-174.12 100.65, -183.44 100.35, -193.05 103.23" stroke="#000000" stroke-width="1" fill="none"></path></g></g><g stroke-linecap="round"><g transform="translate(479.01491845733335 571) rotate(0 -24.995665216831583 59.715943999999126)"><path d="M-0.5 0.78 C-9.08 20.59, -43.02 98.32, -51.44 118.07 M1.44 0.15 C-6.76 20.17, -40.21 99.76, -49.1 119.28" stroke="#000000" stroke-width="1" fill="none"></path></g><g transform="translate(479.01491845733335 571) rotate(0 -24.995665216831583 59.715943999999126)"><path d="M-45.96 88.15 C-49.05 98.09, -47.57 108.62, -49.74 119.78 M-46.43 89.78 C-48.72 98.67, -48.44 108.98, -48.36 118.97" stroke="#000000" stroke-width="1" fill="none"></path></g><g transform="translate(479.01491845733335 571) rotate(0 -24.995665216831583 59.715943999999126)"><path d="M-27.14 96.34 C-35.96 103.68, -40.27 111.69, -49.74 119.78 M-27.61 97.96 C-35.87 104.13, -41.56 111.83, -48.36 118.97" stroke="#000000" stroke-width="1" fill="none"></path></g></g><g stroke-linecap="round"><g transform="translate(488.3212423220747 575) rotate(0 7.222833327739352 27.463424438768982)"><path d="M-1.08 0.21 C1.39 9.38, 12.89 46.69, 15.53 55.66 M0.55 -0.73 C2.89 8.06, 12.81 44.7, 15.06 53.97" stroke="#000000" stroke-width="1" fill="none"></path></g><g transform="translate(488.3212423220747 575) rotate(0 7.222833327739352 27.463424438768982)"><path d="M-0.66 32.13 C6.23 39.32, 9.22 48.78, 14.54 55.71 M-0.04 31.02 C4.55 38.33, 10.54 47.85, 14.95 52.98" stroke="#000000" stroke-width="1" fill="none"></path></g><g transform="translate(488.3212423220747 575) rotate(0 7.222833327739352 27.463424438768982)"><path d="M18.13 27.27 C18.33 36.03, 14.61 47.22, 14.54 55.71 M18.75 26.16 C16.51 35.13, 15.63 46.43, 14.95 52.98" stroke="#000000" stroke-width="1" fill="none"></path></g></g><g stroke-linecap="round"><g transform="translate(513.5425469154177 572) rotate(0 55.432203087804794 29.954990117680325)"><path d="M0.16 -0.89 C18.43 8.85, 91.51 49.39, 109.83 59.37 M-1.21 1.26 C17.41 11.1, 93.71 51.01, 112.08 60.8" stroke="#000000" stroke-width="1" fill="none"></path></g><g transform="translate(513.5425469154177 572) rotate(0 55.432203087804794 29.954990117680325)"><path d="M80.87 55.25 C91.53 56.94, 100.34 58.19, 111.96 61.82 M83.25 56.95 C90.88 57.79, 100.61 59.56, 112.77 61.71" stroke="#000000" stroke-width="1" fill="none"></path></g><g transform="translate(513.5425469154177 572) rotate(0 55.432203087804794 29.954990117680325)"><path d="M90.44 37.1 C98.19 44.59, 103.95 51.63, 111.96 61.82 M92.82 38.8 C97.4 45.24, 104.17 52.63, 112.77 61.71" stroke="#000000" stroke-width="1" fill="none"></path></g></g><g stroke-linecap="round"><g transform="translate(554.2955165872968 572) rotate(0 108.39911151123874 38.773146690768044)"><path d="M-0.22 0.83 C36.11 13.68, 182.27 64.66, 218.59 77.33 M-1.79 0.22 C34.4 12.67, 181.65 62.39, 218.1 75.35" stroke="#000000" stroke-width="1" fill="none"></path></g><g transform="translate(554.2955165872968 572) rotate(0 108.39911151123874 38.773146690768044)"><path d="M189.49 77.32 C199.16 75.69, 208.87 74.61, 219.12 76.33 M187.48 76.74 C198.4 76.6, 207.93 75.39, 217.2 74.72" stroke="#000000" stroke-width="1" fill="none"></path></g><g transform="translate(554.2955165872968 572) rotate(0 108.39911151123874 38.773146690768044)"><path d="M196.19 57.92 C203.54 63.13, 210.88 68.89, 219.12 76.33 M194.18 57.34 C202.92 63.49, 210.26 68.62, 217.2 74.72" stroke="#000000" stroke-width="1" fill="none"></path></g></g><g stroke-linecap="round"><g transform="translate(85 280) rotate(348.48361132674563 30.75770623423159 183.03763259314002)"><path d="M-0.54 0.45 C9.86 61.43, 51.69 304.97, 62.06 365.63" stroke="#000000" stroke-width="1.5" fill="none" stroke-dasharray="1.5 7"></path></g><g transform="translate(85 280) rotate(348.48361132674563 30.75770623423159 183.03763259314002)"><path d="M47.93 341.34 C52.16 347.75, 54.1 352.58, 62.99 364.62" stroke="#000000" stroke-width="1.5" fill="none" stroke-dasharray="1.5 5"></path></g><g transform="translate(85 280) rotate(348.48361132674563 30.75770623423159 183.03763259314002)"><path d="M68.15 337.87 C66.95 345.12, 63.46 350.88, 62.99 364.62" stroke="#000000" stroke-width="1.5" fill="none" stroke-dasharray="1.5 5"></path></g></g><g stroke-linecap="round"><g transform="translate(139 290) rotate(0 88.09398280121388 172.44379739426077)"><path d="M0.47 -0.35 C29.62 57.12, 146.3 287.62, 175.72 345.24" stroke="#000000" stroke-width="1.5" fill="none" stroke-dasharray="1.5 7"></path></g><g transform="translate(139 290) rotate(0 88.09398280121388 172.44379739426077)"><path d="M153.22 324.29 C160.66 333.8, 168.93 338.36, 177.32 346.98" stroke="#000000" stroke-width="1.5" fill="none" stroke-dasharray="1.5 5"></path></g><g transform="translate(139 290) rotate(0 88.09398280121388 172.44379739426077)"><path d="M171.51 314.99 C172.27 327.99, 173.83 335.96, 177.32 346.98" stroke="#000000" stroke-width="1.5" fill="none" stroke-dasharray="1.5 5"></path></g></g><g transform="translate(62 408) rotate(357.8183585964485 97 37.5)"><text x="97" y="18" font-family="Virgil, Segoe UI Emoji" font-size="20px" fill="#000000" text-anchor="middle" style="white-space: pre;" direction="ltr">Deliver cloudinit for</text><text x="97" y="43" font-family="Virgil, Segoe UI Emoji" font-size="20px" fill="#000000" text-anchor="middle" style="white-space: pre;" direction="ltr">nodes</text><text x="97" y="68" font-family="Virgil, Segoe UI Emoji" font-size="20px" fill="#000000" text-anchor="middle" style="white-space: pre;" direction="ltr"></text></g><g stroke-linecap="round" transform="translate(613 178) rotate(0 52 44.5)"><path d="M-0.32 1.38 L103.55 -1.54 L103.95 87.16 L1.42 88.27" stroke="none" stroke-width="0" fill="#ced4da"></path><path d="M-1 -1.97 C23.35 -0.65, 44.25 1.45, 105 1.37 M-0.08 -0.31 C30.87 0.59, 63.34 -0.03, 104.8 -0.66 M104.13 -1.17 C102.66 32.63, 104.14 65.86, 104.18 87.76 M103.88 0.31 C104.29 20.36, 105.25 39.3, 104.74 89.78 M103.36 89.55 C72.89 90.39, 43.23 87.47, -1.97 88.69 M103.21 89.02 C72.15 90.02, 39.59 89.6, 0.43 89.26 M-1.68 90.38 C1.84 64.33, -0.94 38.55, -1.12 -0.3 M-0.11 88.31 C0.72 59.02, -0.12 30.12, -0.24 0.55" stroke="#000000" stroke-width="1" fill="none"></path></g><g transform="translate(618 210) rotate(0 47 12.5)"><text x="47" y="18" font-family="Virgil, Segoe UI Emoji" font-size="20px" fill="#000000" text-anchor="middle" style="white-space: pre;" direction="ltr">CA</text></g><g stroke-linecap="round" transform="translate(609 284.5) rotate(0 52 44.5)"><path d="M1.96 -0.75 L103.39 -0.93 L103.35 88.58 L-0.48 87.15" stroke="none" stroke-width="0" fill="#ced4da"></path><path d="M1.8 -1.58 C29.61 -0.56, 59.3 -1.59, 103.33 0.86 M0.12 -0.84 C34.54 0.86, 67.67 -0.53, 103.37 -0.56 M102.5 -0.22 C102.93 25.83, 103.66 49.51, 104.89 88.52 M103.77 -0.77 C103.83 30.67, 104.57 62.81, 104.7 88.67 M105.15 90.21 C65.55 90.32, 28.87 91.06, -0.81 88.21 M104.9 89.02 C72.31 89.99, 40.55 88.28, 0.77 89.63 M1.49 88.59 C2.56 59.82, 0.06 32.02, -1.85 -0.24 M-0.19 88.53 C0.66 70.19, -0.36 52.78, -0.41 -0.69" stroke="#000000" stroke-width="1" fill="none"></path></g><g transform="translate(614 304) rotate(0 47 25)"><text x="47" y="18" font-family="Virgil, Segoe UI Emoji" font-size="20px" fill="#000000" text-anchor="middle" style="white-space: pre;" direction="ltr">Join </text><text x="47" y="43" font-family="Virgil, Segoe UI Emoji" font-size="20px" fill="#000000" text-anchor="middle" style="white-space: pre;" direction="ltr">Token</text></g><g stroke-linecap="round" transform="translate(314 134) rotate(0 212 155.5)"><path d="M-0.16 0.77 C90.57 0.8, 182.52 0.05, 423.54 0.27 M425.05 -1.41 C426.36 79.78, 424.26 158.72, 422.97 309.7 M424.07 310.61 C260.63 310.9, 99.92 309.71, -0.92 311.06 M1 312.28 C0.06 223.01, 0.9 134.52, 0.6 1.43" stroke="#000000" stroke-width="1.5" fill="none" stroke-dasharray="8 9"></path></g><g transform="translate(337.5 147) rotate(0 90.5 12.5)"><text x="90.5" y="18" font-family="Virgil, Segoe UI Emoji" font-size="20px" fill="#000000" text-anchor="middle" style="white-space: pre;" direction="ltr">Bootstrap cluster</text></g><g transform="translate(237 144) rotate(0 193.5 -50.5)" stroke="none"><path fill="#000000" d="M -1.27,-0.90 Q -1.27,-0.90 1.63,-4.91 4.53,-8.91 7.49,-13.19 10.45,-17.46 15.19,-23.62 19.93,-29.78 23.66,-34.68 27.39,-39.58 32.21,-44.32 37.02,-49.06 41.63,-53.62 46.24,-58.19 50.50,-62.43 54.76,-66.67 59.76,-71.09 64.76,-75.50 68.92,-78.83 73.07,-82.15 78.04,-85.32 83.02,-88.49 87.16,-90.70 91.31,-92.92 96.21,-95.57 101.12,-98.23 105.78,-100.79 110.45,-103.36 115.05,-105.61 119.66,-107.86 125.07,-110.26 130.49,-112.67 135.43,-114.28 140.37,-115.89 145.93,-117.44 151.48,-118.99 156.10,-120.49 160.72,-122.00 166.47,-123.52 172.21,-125.04 177.24,-126.26 182.27,-127.48 187.29,-128.57 192.32,-129.67 197.11,-130.14 201.90,-130.62 207.10,-130.82 212.31,-131.02 216.86,-130.81 221.41,-130.61 225.41,-129.94 229.41,-129.27 233.37,-128.70 237.32,-128.14 240.18,-127.60 243.04,-127.07 246.57,-126.26 250.11,-125.46 253.08,-124.53 256.06,-123.60 259.98,-121.74 263.90,-119.88 266.99,-118.23 270.08,-116.58 273.18,-114.40 276.28,-112.22 279.31,-109.86 282.35,-107.50 285.30,-105.68 288.25,-103.86 291.61,-101.00 294.98,-98.14 298.04,-96.13 301.10,-94.13 304.78,-91.21 308.45,-88.29 310.91,-85.86 313.36,-83.44 316.09,-81.02 318.81,-78.59 320.88,-76.36 322.96,-74.12 324.73,-71.70 326.51,-69.27 328.42,-66.21 330.33,-63.15 331.95,-61.06 333.58,-58.97 335.17,-56.58 336.77,-54.20 337.77,-52.28 338.77,-50.35 340.27,-48.20 341.78,-46.05 342.81,-44.53 343.83,-43.02 345.06,-41.24 346.29,-39.47 347.21,-37.78 348.13,-36.09 349.07,-34.60 350.00,-33.11 350.99,-31.63 351.97,-30.14 352.76,-28.92 353.55,-27.71 354.43,-26.38 355.31,-25.05 356.06,-23.51 356.80,-21.96 358.04,-20.35 359.27,-18.73 360.21,-17.76 361.14,-16.79 362.16,-15.44 363.19,-14.09 364.00,-12.54 364.80,-10.99 365.42,-9.48 366.04,-7.98 367.19,-6.74 368.33,-5.51 369.33,-4.24 370.32,-2.97 371.47,-1.65 372.63,-0.34 373.34,0.64 374.04,1.62 374.60,3.13 375.15,4.65 376.47,6.23 377.79,7.81 379.18,10.14 380.57,12.48 381.92,14.28 383.28,16.09 384.08,17.61 384.89,19.14 385.48,20.86 386.08,22.58 386.65,23.54 387.21,24.51 388.42,26.52 389.64,28.53 389.65,28.97 389.65,29.40 389.52,29.81 389.38,30.23 389.12,30.58 388.86,30.93 388.51,31.17 388.15,31.42 387.73,31.54 387.31,31.66 386.88,31.64 386.45,31.63 386.04,31.47 385.63,31.31 385.30,31.03 384.97,30.76 384.74,30.39 384.51,30.02 384.41,29.59 384.31,29.17 384.36,28.74 384.40,28.30 384.58,27.91 384.75,27.51 385.05,27.19 385.35,26.87 385.73,26.67 386.11,26.46 386.54,26.38 386.97,26.31 387.40,26.37 387.83,26.44 388.21,26.64 388.60,26.84 388.90,27.15 389.20,27.46 389.39,27.86 389.58,28.25 389.63,28.68 389.68,29.11 389.59,29.54 389.50,29.96 389.28,30.34 389.06,30.71 388.73,31.00 388.40,31.28 388.00,31.45 387.60,31.61 387.17,31.64 386.73,31.67 386.31,31.56 385.89,31.45 385.53,31.21 385.17,30.97 384.90,30.62 384.63,30.28 384.49,29.87 384.35,29.46 384.35,29.46 384.35,29.46 383.89,28.64 383.44,27.83 382.90,26.87 382.36,25.92 381.96,24.70 381.56,23.48 381.39,22.18 381.22,20.87 380.74,19.71 380.27,18.54 378.62,16.72 376.97,14.89 375.35,12.75 373.73,10.61 372.92,9.44 372.11,8.28 371.31,6.51 370.52,4.75 370.11,3.51 369.70,2.27 368.38,0.84 367.06,-0.59 366.29,-1.73 365.53,-2.87 363.88,-4.61 362.23,-6.34 361.68,-7.77 361.14,-9.19 360.56,-10.47 359.98,-11.75 359.09,-13.01 358.20,-14.27 357.35,-15.37 356.49,-16.48 354.86,-18.40 353.24,-20.31 352.67,-21.67 352.10,-23.03 351.24,-24.46 350.37,-25.89 349.77,-27.12 349.16,-28.35 348.20,-29.91 347.25,-31.47 346.33,-33.09 345.42,-34.71 344.69,-36.27 343.96,-37.84 342.66,-39.65 341.35,-41.47 340.48,-43.00 339.61,-44.53 338.01,-46.83 336.40,-49.14 335.49,-50.94 334.58,-52.74 333.04,-55.05 331.50,-57.36 329.80,-59.56 328.10,-61.76 326.24,-64.74 324.38,-67.72 322.71,-70.03 321.03,-72.34 319.05,-74.49 317.06,-76.63 314.29,-79.10 311.52,-81.57 309.17,-83.90 306.81,-86.23 303.24,-89.08 299.66,-91.93 296.47,-94.04 293.28,-96.14 290.07,-98.88 286.86,-101.63 283.80,-103.53 280.74,-105.42 277.75,-107.75 274.76,-110.08 271.80,-112.17 268.84,-114.26 265.80,-115.88 262.77,-117.51 259.02,-119.30 255.27,-121.09 252.40,-122.00 249.52,-122.90 246.04,-123.69 242.56,-124.49 239.75,-125.01 236.94,-125.54 232.96,-126.11 228.98,-126.68 225.13,-127.33 221.29,-127.98 216.85,-128.19 212.41,-128.39 207.28,-128.20 202.15,-128.00 197.51,-127.55 192.87,-127.10 187.88,-126.01 182.89,-124.92 177.89,-123.71 172.89,-122.50 167.21,-121.00 161.53,-119.50 156.86,-117.98 152.18,-116.45 146.69,-114.92 141.19,-113.39 136.37,-111.83 131.55,-110.26 126.18,-107.88 120.81,-105.50 116.27,-103.27 111.72,-101.05 107.05,-98.48 102.37,-95.91 97.46,-93.25 92.55,-90.59 88.50,-88.42 84.44,-86.25 79.58,-83.16 74.73,-80.07 70.63,-76.79 66.53,-73.50 61.59,-69.14 56.65,-64.77 52.39,-60.52 48.14,-56.28 43.54,-51.70 38.94,-47.11 34.26,-42.51 29.59,-37.90 25.88,-32.98 22.16,-28.06 17.50,-21.94 12.83,-15.82 9.90,-11.50 6.96,-7.18 4.11,-3.13 1.27,0.90 1.14,1.04 1.01,1.18 0.86,1.29 0.70,1.39 0.52,1.45 0.34,1.52 0.16,1.54 -0.02,1.56 -0.21,1.53 -0.39,1.51 -0.57,1.44 -0.74,1.37 -0.90,1.26 -1.05,1.15 -1.17,1.00 -1.29,0.86 -1.38,0.69 -1.46,0.53 -1.51,0.34 -1.55,0.16 -1.55,-0.02 -1.54,-0.21 -1.49,-0.39 -1.45,-0.57 -1.36,-0.74 -1.27,-0.90 -1.27,-0.90 L -1.27,-0.90 Z"></path></g><g transform="translate(257 143) rotate(0 182.5 40.5)" stroke="none"><path fill="#000000" d="M -1.10,-1.10 Q -1.10,-1.10 0.64,-2.80 2.39,-4.50 5.81,-7.01 9.23,-9.52 12.70,-11.73 16.17,-13.94 20.83,-16.60 25.48,-19.26 30.07,-21.55 34.66,-23.84 39.44,-26.52 44.23,-29.19 48.53,-32.03 52.84,-34.87 58.20,-37.56 63.57,-40.26 68.19,-41.99 72.80,-43.72 77.60,-45.59 82.41,-47.46 87.32,-49.40 92.24,-51.35 96.41,-52.48 100.58,-53.62 105.49,-54.95 110.40,-56.29 114.15,-57.70 117.91,-59.11 121.95,-59.76 126.00,-60.40 129.15,-60.66 132.30,-60.92 134.79,-61.03 137.29,-61.15 140.37,-61.19 143.45,-61.24 146.48,-61.26 149.51,-61.28 153.72,-61.00 157.93,-60.72 161.69,-60.60 165.45,-60.48 169.72,-59.85 173.99,-59.22 177.45,-58.96 180.91,-58.70 185.29,-58.30 189.66,-57.89 193.21,-57.73 196.76,-57.56 201.75,-57.20 206.74,-56.84 211.49,-56.10 216.25,-55.37 219.97,-54.77 223.70,-54.17 227.66,-53.04 231.62,-51.91 234.35,-51.45 237.08,-50.99 240.32,-50.21 243.57,-49.42 246.15,-48.49 248.73,-47.57 251.31,-46.29 253.88,-45.01 256.20,-43.27 258.52,-41.52 260.86,-39.97 263.21,-38.42 265.72,-36.26 268.23,-34.11 270.15,-32.33 272.07,-30.56 274.59,-28.39 277.11,-26.22 279.06,-24.41 281.02,-22.61 283.29,-20.40 285.57,-18.19 287.68,-16.10 289.80,-14.01 291.90,-11.34 294.00,-8.67 295.71,-6.72 297.43,-4.77 298.83,-2.08 300.23,0.61 301.34,2.19 302.45,3.77 303.53,5.67 304.61,7.58 305.89,9.48 307.17,11.38 307.89,12.87 308.61,14.35 309.64,16.32 310.67,18.28 311.71,19.61 312.74,20.94 314.01,22.71 315.28,24.49 316.43,26.46 317.57,28.44 318.60,29.34 319.62,30.25 320.54,31.71 321.47,33.17 322.35,34.91 323.24,36.66 324.17,38.20 325.10,39.74 325.86,40.98 326.63,42.23 327.69,43.86 328.76,45.50 329.61,46.80 330.47,48.11 331.38,49.48 332.29,50.86 333.05,52.43 333.81,54.00 334.85,56.03 335.88,58.07 336.90,60.14 337.91,62.22 338.90,64.26 339.88,66.30 340.87,67.99 341.86,69.67 342.44,71.09 343.03,72.52 343.32,74.08 343.60,75.64 344.88,78.02 346.15,80.41 346.64,82.58 347.13,84.76 347.80,87.26 348.48,89.75 349.29,91.61 350.11,93.47 350.58,95.29 351.06,97.12 351.77,98.52 352.49,99.92 353.15,101.49 353.81,103.06 354.61,104.46 355.41,105.86 355.90,106.88 356.38,107.90 356.79,109.39 357.20,110.89 358.77,114.23 360.35,117.57 361.05,119.52 361.75,121.47 362.55,123.41 363.34,125.35 363.83,126.53 364.33,127.70 364.75,129.26 365.17,130.82 365.91,132.22 366.66,133.61 366.95,135.20 367.24,136.78 367.43,138.82 367.61,140.86 367.57,141.28 367.52,141.71 367.34,142.09 367.16,142.47 366.87,142.78 366.58,143.09 366.20,143.29 365.82,143.48 365.41,143.55 364.99,143.62 364.57,143.55 364.15,143.48 363.77,143.28 363.40,143.08 363.11,142.77 362.82,142.46 362.64,142.07 362.47,141.69 362.42,141.27 362.38,140.84 362.47,140.43 362.56,140.02 362.78,139.65 363.00,139.29 363.33,139.02 363.65,138.74 364.05,138.59 364.44,138.43 364.86,138.41 365.29,138.39 365.70,138.50 366.10,138.62 366.45,138.86 366.81,139.10 367.06,139.44 367.32,139.77 367.45,140.18 367.58,140.58 367.58,141.00 367.58,141.43 367.44,141.83 367.31,142.23 367.05,142.57 366.79,142.91 366.44,143.14 366.09,143.38 365.68,143.49 365.27,143.60 364.85,143.58 364.42,143.55 364.03,143.40 363.63,143.24 363.31,142.96 362.99,142.69 362.77,142.32 362.56,141.96 362.47,141.54 362.38,141.13 362.38,141.13 362.38,141.13 362.23,138.38 362.08,135.63 361.68,134.62 361.27,133.62 360.95,132.49 360.62,131.37 360.58,130.18 360.53,129.00 360.26,127.95 360.00,126.90 358.99,124.95 357.99,123.01 357.17,121.23 356.36,119.46 355.22,117.37 354.09,115.29 353.36,112.87 352.63,110.45 352.38,109.05 352.13,107.65 351.27,106.02 350.40,104.40 349.86,102.90 349.32,101.40 348.56,99.64 347.80,97.88 347.52,96.33 347.23,94.78 346.25,92.75 345.26,90.72 344.42,88.14 343.58,85.55 343.21,83.88 342.83,82.21 341.69,80.34 340.54,78.47 340.19,77.31 339.85,76.16 339.77,74.88 339.69,73.61 339.42,72.43 339.14,71.25 338.11,69.49 337.07,67.74 336.00,65.76 334.94,63.78 333.83,61.81 332.71,59.83 331.45,57.75 330.19,55.67 329.60,54.31 329.02,52.96 328.12,51.51 327.22,50.07 326.51,48.80 325.81,47.52 324.56,45.79 323.31,44.07 322.69,42.81 322.08,41.55 321.10,39.91 320.13,38.27 319.24,36.58 318.35,34.90 317.80,33.70 317.25,32.50 316.16,31.22 315.08,29.94 313.96,28.12 312.85,26.29 311.51,24.55 310.17,22.80 309.12,21.25 308.06,19.70 306.90,17.60 305.73,15.50 305.34,14.19 304.94,12.87 303.60,10.90 302.26,8.92 301.23,7.11 300.19,5.30 299.04,3.55 297.89,1.81 296.66,-0.62 295.44,-3.05 293.69,-5.05 291.94,-7.04 289.94,-9.59 287.95,-12.14 285.84,-14.22 283.74,-16.30 281.49,-18.49 279.24,-20.68 277.31,-22.45 275.39,-24.23 272.84,-26.43 270.29,-28.63 268.40,-30.37 266.52,-32.12 264.14,-34.17 261.75,-36.23 259.34,-37.83 256.93,-39.43 254.82,-41.05 252.70,-42.67 250.27,-43.88 247.84,-45.10 245.39,-45.98 242.95,-46.87 239.79,-47.63 236.64,-48.40 233.77,-48.89 230.89,-49.38 227.09,-50.48 223.28,-51.58 219.56,-52.18 215.85,-52.77 211.20,-53.50 206.55,-54.22 201.60,-54.58 196.64,-54.93 193.03,-55.11 189.42,-55.28 185.07,-55.68 180.71,-56.08 177.16,-56.35 173.60,-56.62 169.48,-57.24 165.36,-57.86 161.56,-57.98 157.76,-58.10 153.64,-58.37 149.53,-58.65 146.51,-58.63 143.49,-58.61 140.45,-58.57 137.40,-58.52 134.96,-58.41 132.52,-58.30 129.46,-58.05 126.40,-57.80 122.61,-57.22 118.82,-56.65 114.95,-55.20 111.09,-53.75 106.18,-52.41 101.28,-51.07 97.24,-49.98 93.21,-48.89 88.29,-46.94 83.37,-44.99 78.55,-43.11 73.73,-41.23 69.25,-39.55 64.76,-37.88 59.54,-35.25 54.31,-32.63 49.93,-29.73 45.55,-26.84 40.71,-24.12 35.88,-21.41 31.37,-19.14 26.86,-16.87 22.28,-14.22 17.69,-11.56 14.32,-9.38 10.95,-7.20 7.72,-4.79 4.50,-2.39 2.80,-0.64 1.10,1.10 0.95,1.22 0.80,1.33 0.63,1.41 0.46,1.49 0.27,1.52 0.09,1.55 -0.09,1.54 -0.28,1.53 -0.46,1.48 -0.64,1.42 -0.80,1.32 -0.96,1.22 -1.09,1.09 -1.22,0.96 -1.32,0.80 -1.42,0.64 -1.48,0.46 -1.53,0.28 -1.54,0.09 -1.55,-0.09 -1.52,-0.27 -1.49,-0.46 -1.41,-0.63 -1.33,-0.80 -1.22,-0.95 -1.10,-1.10 -1.10,-1.10 L -1.10,-1.10 Z"></path></g><g transform="translate(602 264) rotate(0 13.5 5.5)" stroke="none"><path fill="#000000" d="M 1.72,-1.37 Q 1.72,-1.37 2.83,0.08 3.93,1.54 5.62,2.92 7.30,4.31 9.22,5.86 11.14,7.40 12.85,8.98 14.56,10.56 15.63,11.43 16.71,12.29 18.39,13.28 20.07,14.27 22.06,15.62 24.04,16.98 25.33,17.63 26.62,18.29 27.20,18.45 27.78,18.60 28.01,18.82 28.24,19.04 28.41,19.31 28.58,19.58 28.69,19.88 28.79,20.18 28.81,20.50 28.84,20.82 28.79,21.13 28.74,21.45 28.62,21.74 28.49,22.03 28.30,22.29 28.11,22.54 27.87,22.75 27.62,22.95 27.33,23.08 27.05,23.22 26.73,23.29 26.42,23.35 26.10,23.34 25.79,23.33 25.48,23.24 25.17,23.15 24.90,22.99 24.62,22.84 24.04,21.09 23.45,19.35 23.17,18.24 22.89,17.12 22.18,15.43 21.47,13.74 20.57,11.92 19.66,10.11 19.37,8.59 19.07,7.08 18.80,5.36 18.53,3.65 18.04,1.07 17.56,-1.49 16.97,-5.00 16.39,-8.50 16.38,-8.93 16.37,-9.36 16.50,-9.77 16.63,-10.18 16.88,-10.53 17.13,-10.87 17.48,-11.12 17.83,-11.37 18.24,-11.49 18.65,-11.62 19.07,-11.61 19.50,-11.59 19.90,-11.44 20.30,-11.30 20.64,-11.03 20.97,-10.76 21.20,-10.40 21.43,-10.03 21.53,-9.62 21.63,-9.20 21.60,-8.78 21.56,-8.35 21.39,-7.96 21.22,-7.56 20.93,-7.24 20.65,-6.93 20.27,-6.72 19.90,-6.51 19.48,-6.43 19.06,-6.35 18.63,-6.41 18.21,-6.47 17.83,-6.66 17.44,-6.85 17.14,-7.15 16.84,-7.46 16.65,-7.84 16.46,-8.23 16.41,-8.65 16.35,-9.07 16.43,-9.50 16.51,-9.92 16.72,-10.29 16.94,-10.66 17.26,-10.95 17.58,-11.23 17.97,-11.40 18.36,-11.57 18.79,-11.60 19.22,-11.63 19.63,-11.53 20.05,-11.42 20.41,-11.19 20.77,-10.96 21.04,-10.63 21.30,-10.29 21.45,-9.89 21.60,-9.49 21.60,-9.49 21.60,-9.49 22.05,-6.16 22.51,-2.82 23.42,-0.21 24.34,2.39 24.70,4.46 25.07,6.53 25.26,7.90 25.44,9.27 26.24,10.73 27.04,12.19 27.51,13.52 27.98,14.86 27.88,16.73 27.78,18.60 28.01,18.82 28.24,19.04 28.41,19.31 28.58,19.58 28.69,19.88 28.79,20.18 28.81,20.50 28.84,20.82 28.79,21.13 28.74,21.45 28.62,21.74 28.49,22.03 28.30,22.29 28.11,22.54 27.87,22.74 27.62,22.95 27.33,23.08 27.05,23.22 26.73,23.29 26.42,23.35 26.10,23.34 25.79,23.33 25.48,23.24 25.17,23.15 24.90,22.99 24.62,22.84 24.13,22.62 23.63,22.41 22.34,21.48 21.05,20.55 20.22,19.78 19.38,19.00 18.35,18.27 17.32,17.53 15.81,16.25 14.30,14.97 13.35,13.99 12.41,13.01 10.72,11.59 9.03,10.18 7.01,8.76 4.99,7.33 2.82,5.76 0.66,4.20 -0.53,2.79 -1.72,1.37 -1.86,1.15 -2.00,0.92 -2.08,0.67 -2.16,0.41 -2.18,0.15 -2.20,-0.11 -2.15,-0.37 -2.11,-0.63 -2.00,-0.87 -1.89,-1.12 -1.73,-1.33 -1.57,-1.54 -1.36,-1.70 -1.15,-1.87 -0.91,-1.98 -0.67,-2.09 -0.41,-2.14 -0.15,-2.19 0.11,-2.18 0.37,-2.17 0.63,-2.09 0.88,-2.01 1.11,-1.88 1.34,-1.74 1.53,-1.56 1.72,-1.37 1.72,-1.37 L 1.72,-1.37 Z"></path></g><g transform="translate(608 157) rotate(0 11 3.5)" stroke="none"><path fill="#000000" d="M 1.82,-1.56 Q 1.82,-1.56 3.43,0.54 5.05,2.64 6.48,4.05 7.90,5.46 9.54,6.68 11.17,7.89 11.96,9.01 12.74,10.13 14.32,11.02 15.89,11.91 17.04,12.68 18.19,13.46 19.42,13.79 20.66,14.13 21.25,14.16 21.83,14.20 22.14,14.32 22.45,14.44 22.73,14.63 23.00,14.83 23.22,15.08 23.44,15.33 23.59,15.63 23.75,15.92 23.82,16.25 23.90,16.57 23.90,16.91 23.89,17.24 23.81,17.57 23.73,17.89 23.57,18.19 23.41,18.48 23.19,18.73 22.97,18.98 22.69,19.16 22.41,19.35 22.10,19.47 21.79,19.58 21.46,19.62 21.12,19.66 20.79,19.62 20.46,19.57 19.41,18.20 18.35,16.83 17.75,15.65 17.16,14.47 16.66,12.84 16.17,11.20 16.06,10.01 15.95,8.83 15.88,7.28 15.81,5.74 14.91,4.16 14.01,2.58 12.65,0.04 11.29,-2.49 10.76,-3.72 10.24,-4.94 9.24,-6.98 8.24,-9.02 8.16,-9.48 8.07,-9.95 8.14,-10.42 8.21,-10.88 8.43,-11.31 8.64,-11.73 8.98,-12.06 9.32,-12.39 9.74,-12.59 10.17,-12.80 10.64,-12.86 11.11,-12.91 11.57,-12.82 12.03,-12.73 12.44,-12.49 12.85,-12.25 13.16,-11.90 13.48,-11.54 13.66,-11.10 13.84,-10.67 13.87,-10.20 13.90,-9.72 13.79,-9.27 13.67,-8.81 13.41,-8.41 13.15,-8.02 12.78,-7.73 12.40,-7.43 11.96,-7.28 11.51,-7.12 11.04,-7.11 10.57,-7.10 10.12,-7.25 9.67,-7.39 9.29,-7.67 8.90,-7.95 8.63,-8.34 8.36,-8.73 8.23,-9.18 8.10,-9.63 8.11,-10.11 8.13,-10.58 8.30,-11.02 8.47,-11.46 8.77,-11.83 9.07,-12.19 9.47,-12.44 9.87,-12.69 10.33,-12.80 10.79,-12.91 11.26,-12.87 11.73,-12.82 12.17,-12.63 12.60,-12.44 12.95,-12.12 13.29,-11.80 13.52,-11.38 13.75,-10.97 13.75,-10.97 13.75,-10.97 14.60,-9.15 15.45,-7.33 16.07,-6.04 16.69,-4.75 17.23,-3.58 17.78,-2.41 18.90,-0.51 20.03,1.37 21.11,3.55 22.18,5.73 22.13,7.19 22.08,8.66 22.07,10.13 22.07,11.59 22.58,12.58 23.10,13.58 23.43,14.75 23.77,15.91 22.80,15.06 21.83,14.20 22.14,14.32 22.45,14.44 22.73,14.63 23.00,14.83 23.22,15.08 23.44,15.33 23.59,15.63 23.75,15.92 23.82,16.25 23.90,16.57 23.90,16.91 23.89,17.24 23.81,17.57 23.73,17.89 23.57,18.19 23.41,18.48 23.19,18.73 22.97,18.98 22.69,19.16 22.41,19.35 22.10,19.47 21.79,19.58 21.46,19.62 21.12,19.66 20.79,19.62 20.46,19.57 19.03,19.18 17.59,18.78 16.52,18.25 15.44,17.71 12.93,15.91 10.42,14.11 9.71,13.31 9.00,12.51 8.22,11.16 7.43,9.81 6.40,9.05 5.37,8.30 3.60,6.85 1.84,5.40 0.01,3.48 -1.82,1.56 -1.98,1.32 -2.14,1.08 -2.24,0.80 -2.33,0.53 -2.36,0.24 -2.39,-0.03 -2.35,-0.32 -2.32,-0.61 -2.21,-0.88 -2.10,-1.14 -1.93,-1.38 -1.76,-1.62 -1.55,-1.80 -1.33,-1.99 -1.07,-2.12 -0.81,-2.25 -0.53,-2.32 -0.25,-2.38 0.03,-2.38 0.32,-2.37 0.60,-2.30 0.88,-2.22 1.14,-2.09 1.39,-1.95 1.60,-1.75 1.82,-1.56 1.82,-1.56 L 1.82,-1.56 Z"></path></g><g transform="translate(193.5 10) rotate(0 90.5 37.5)"><text x="0" y="18" font-family="Virgil, Segoe UI Emoji" font-size="20px" fill="#000000" text-anchor="start" style="white-space: pre;" direction="ltr">Generate Secrets:</text><text x="0" y="43" font-family="Virgil, Segoe UI Emoji" font-size="20px" fill="#000000" text-anchor="start" style="white-space: pre;" direction="ltr">- Join token</text><text x="0" y="68" font-family="Virgil, Segoe UI Emoji" font-size="20px" fill="#000000" text-anchor="start" style="white-space: pre;" direction="ltr">-CA</text></g><g stroke-linecap="round" transform="translate(774 142.76117062568665) rotate(0 126 63.5)"><path d="M-0.93 0.32 C50.44 1.4, 99.56 0.65, 250.9 0.29 M-0.02 0.38 C52.05 -0.73, 104.45 -1.66, 252.55 -0.49 M252.99 -0.75 C252.14 52.18, 251.83 99.26, 250.07 128.91 M252.2 -0.59 C253.48 34.39, 252.72 68.17, 251.24 126.16 M253.04 125.43 C149.61 124.68, 49.58 124.24, 0.32 128.18 M251.24 127.1 C173.14 125.25, 93.9 125.76, -0.61 126.73 M-0.09 127.29 C0.36 83.71, 2.4 41.77, -0.04 -0.64 M-0.85 127.81 C1.04 99.39, 0.83 72.94, -0.02 -0.87" stroke="#000000" stroke-width="1" fill="none"></path></g><g transform="translate(833 176.76117062568665) rotate(0 66 25)"><text x="66" y="18" font-family="Virgil, Segoe UI Emoji" font-size="20px" fill="#000000" text-anchor="middle" style="white-space: pre;" direction="ltr">Control Plane</text><text x="66" y="43" font-family="Virgil, Segoe UI Emoji" font-size="20px" fill="#000000" text-anchor="middle" style="white-space: pre;" direction="ltr">Provider </text></g><g stroke-linecap="round" transform="translate(594 386.76117062568665) rotate(0 66.5 23)"><path d="M1.18 -1.19 L132.58 -0.25 L132.19 45.25 L-1.51 46.86" stroke="none" stroke-width="0" fill="#ced4da"></path><path d="M0.52 -1.67 C40.47 -0.36, 80.34 -0.1, 133.33 -1.19 M-0.94 -0.92 C29.94 -1.77, 60.09 -1.61, 132.9 0.56 M133.77 -1.49 C131.27 7.54, 132.74 20.43, 133.9 44.14 M133.35 -1 C133.08 13.02, 132.22 25.23, 133.42 45.41 M133.84 47.31 C97.28 47.54, 62.46 44.87, 0.19 47.81 M133.09 45.49 C96.09 45.87, 58.61 46.01, 0.55 45.58 M0.78 44.82 C-0.55 30.73, 1.03 18.25, -0.75 0.32 M0.45 46.1 C-1.09 35.31, 0.71 23.39, -0.09 -0.79" stroke="#000000" stroke-width="1" fill="none"></path></g><g transform="translate(599 397.26117062568665) rotate(0 61.5 12.5)"><text x="61.5" y="18" font-family="Virgil, Segoe UI Emoji" font-size="20px" fill="#000000" text-anchor="middle" style="white-space: pre;" direction="ltr">kubeconfig</text></g><g stroke-linecap="round"><g transform="translate(724 191.76117062568665) rotate(0 27.532433232292533 -3.8455813415162226)"><path d="M-0.45 -0.9 C8.83 -2.31, 46.19 -7.44, 55.51 -8.93 M1.52 1.24 C10.69 0.08, 45.92 -5.66, 54.83 -7.35" stroke="#000000" stroke-width="1" fill="none"></path></g><g transform="translate(724 191.76117062568665) rotate(0 27.532433232292533 -3.8455813415162226)"><path d="M29.16 7.38 C37.8 3.44, 43.27 -0.07, 53.2 -5.81 M31.1 6.74 C39.71 0.87, 48.94 -2.65, 54.12 -8.26" stroke="#000000" stroke-width="1" fill="none"></path></g><g transform="translate(724 191.76117062568665) rotate(0 27.532433232292533 -3.8455813415162226)"><path d="M25.9 -11.4 C35.4 -9.92, 41.8 -8.03, 53.2 -5.81 M27.84 -12.04 C37.53 -11.15, 47.94 -7.92, 54.12 -8.26" stroke="#000000" stroke-width="1" fill="none"></path></g></g><g stroke-linecap="round" transform="translate(63 578.2050955295563) rotate(0 466.5000000000001 180)"><path d="M0.3 0.58 C260.28 -1.08, 522.42 -1.27, 932.52 0.66 M0.2 0.2 C329.39 -0.02, 658.77 -0.56, 932.75 0.14 M933.46 -1.1 C932 122.82, 932.42 243.93, 932.9 360.83 M933.13 0.52 C935.73 117.12, 935.26 233.37, 933.45 360.49 M932.41 360.71 C599.55 356.95, 265.53 356.38, 0.74 360.53 M932.85 359.65 C656.5 356.77, 379.46 356.63, 0.15 359.73 M1.1 358.76 C0.02 222.02, -1.74 84.19, -0.94 0.46 M0.42 359.57 C1.06 251.61, 0.51 144.26, 0.59 -0.04" stroke="#000000" stroke-width="1" fill="none"></path></g><g transform="translate(444 906.2050955295563) rotate(0 94 12.5)"><text x="94" y="18" font-family="Virgil, Segoe UI Emoji" font-size="20px" fill="#000000" text-anchor="middle" style="white-space: pre;" direction="ltr">Provisioned Cluster</text></g><g stroke-linecap="round" transform="translate(773 502.91135716438293) rotate(0 19 15.5)"><path d="M20.64 0.88 C24.49 1.16, 29.7 2.48, 32.55 4.98 C35.4 7.47, 37.41 12.51, 37.73 15.87 C38.04 19.23, 36.79 22.77, 34.46 25.13 C32.14 27.5, 27.79 29.51, 23.79 30.06 C19.79 30.62, 14.19 29.9, 10.49 28.48 C6.79 27.07, 3.1 24.62, 1.61 21.57 C0.12 18.51, 0.31 13.32, 1.54 10.15 C2.78 6.98, 5.37 4.02, 9.03 2.56 C12.68 1.09, 20.61 1.55, 23.48 1.36 C26.35 1.17, 26.21 1.48, 26.25 1.43 M22.6 0.51 C26.1 0.58, 30.06 2.56, 32.67 4.96 C35.27 7.36, 38.3 11.45, 38.24 14.89 C38.18 18.32, 35.29 23.09, 32.32 25.57 C29.35 28.05, 24.16 29.23, 20.43 29.76 C16.7 30.28, 12.93 30.39, 9.93 28.69 C6.94 26.99, 3.7 22.7, 2.47 19.58 C1.23 16.45, 1.17 12.84, 2.52 9.95 C3.87 7.07, 7.23 3.86, 10.55 2.26 C13.88 0.66, 20.69 0.58, 22.49 0.36 C24.28 0.13, 21.31 0.62, 21.3 0.91" stroke="#000000" stroke-width="1" fill="none"></path></g><g stroke-linecap="round"><g transform="translate(792 533.9113571643829) rotate(0 -0.24968560483307556 24.806169103048745)"><path d="M-0.17 0.15 C-0.45 8.19, -1.04 41.1, -0.98 49.27 M-1.72 -0.81 C-1.69 7.89, 1.01 41.95, 1.22 50.43" stroke="#000000" stroke-width="1" fill="none"></path></g></g><g stroke-linecap="round"><g transform="translate(694 515.9113571643829) rotate(0 37.816000464092895 2.578402230311184)"><path d="M0.02 0.17 C13.06 1.13, 64.45 5.05, 77.05 5.94 M-1.42 -0.78 C11.65 -0.17, 63.98 3.61, 76.66 4.3" stroke="#000000" stroke-width="1" fill="none"></path></g><g transform="translate(694 515.9113571643829) rotate(0 37.816000464092895 2.578402230311184)"><path d="M48.16 14.48 C55.29 10.39, 60.39 7.39, 75.87 3.64 M48.39 13.48 C53.32 11.57, 60.31 8.59, 76.83 3.34" stroke="#000000" stroke-width="1" fill="none"></path></g><g transform="translate(694 515.9113571643829) rotate(0 37.816000464092895 2.578402230311184)"><path d="M49.48 -5.99 C56.38 -5.91, 61.21 -4.72, 75.87 3.64 M49.71 -7 C54.53 -4.31, 61.22 -2.68, 76.83 3.34" stroke="#000000" stroke-width="1" fill="none"></path></g></g><g transform="translate(793.5 529.4403018951416) rotate(0 54.5 12.5)"><text x="54.5" y="18" font-family="Virgil, Segoe UI Emoji" font-size="20px" fill="#000000" text-anchor="middle" style="white-space: pre;" direction="ltr">Cluster EP</text></g><g stroke-linecap="round"><g transform="translate(804 500.4403018951416) rotate(0 21.855202284781285 -113.70051132368856)"><path d="M1.02 -0.69 C8.19 -38.8, 36.29 -190.82, 43.61 -228.96 M0.1 1.56 C7.02 -36.31, 35.03 -189.06, 42.46 -227.4" stroke="#000000" stroke-width="1" fill="none"></path></g><g transform="translate(804 500.4403018951416) rotate(0 21.855202284781285 -113.70051132368856)"><path d="M46.18 -198.45 C45.77 -206.62, 43.08 -217.54, 42.07 -227.88 M48.09 -197.18 C45.82 -204.92, 44.38 -209.13, 42.71 -226.5" stroke="#000000" stroke-width="1" fill="none"></path></g><g transform="translate(804 500.4403018951416) rotate(0 21.855202284781285 -113.70051132368856)"><path d="M26.01 -202.24 C32.69 -209.24, 37.11 -218.83, 42.07 -227.88 M27.92 -200.97 C29.86 -207.86, 32.62 -211.28, 42.71 -226.5" stroke="#000000" stroke-width="1" fill="none"></path></g></g><g stroke-linecap="round"><g transform="translate(815 266.4403018951416) rotate(0 -45.9576679308899 65.50716412998734)"><path d="M-0.03 -0.88 C-15.31 20.91, -75.93 109.92, -91.3 131.9 M-1.51 1.27 C-16.92 23.24, -76.61 108.41, -91.88 130.25" stroke="#000000" stroke-width="1" fill="none"></path></g><g transform="translate(815 266.4403018951416) rotate(0 -45.9576679308899 65.50716412998734)"><path d="M-85.59 102.43 C-84.92 110.45, -89.03 119.61, -93.79 129.84 M-84.73 100.86 C-85.28 108.93, -88 115.41, -92.59 130.29" stroke="#000000" stroke-width="1" fill="none"></path></g><g transform="translate(815 266.4403018951416) rotate(0 -45.9576679308899 65.50716412998734)"><path d="M-68.78 114.2 C-73.8 118.31, -83.49 123.57, -93.79 129.84 M-67.92 112.63 C-72.66 117.99, -79.46 121.62, -92.59 130.29" stroke="#000000" stroke-width="1" fill="none"></path></g></g><g stroke-linecap="round" transform="translate(1083.834561584053 333.4403018951416) rotate(0 30.672127280845075 28.08921129930019)"><path d="M26.42 0.38 C32.46 -0.74, 41.19 1.76, 46.63 4.76 C52.07 7.76, 56.84 12.92, 59.07 18.4 C61.29 23.88, 62.1 31.81, 59.98 37.64 C57.86 43.47, 52.23 50.5, 46.34 53.38 C40.45 56.26, 31.06 56.2, 24.62 54.93 C18.18 53.65, 11.93 50.27, 7.7 45.72 C3.46 41.16, -0.76 33.68, -0.77 27.59 C-0.78 21.5, 2.69 13.91, 7.62 9.19 C12.55 4.47, 24.55 0.55, 28.79 -0.72 C33.03 -2, 33.05 1.09, 33.06 1.54 M40.36 3.06 C46.68 4.31, 55.33 8.14, 58.57 13.09 C61.81 18.04, 61.24 26.63, 59.81 32.76 C58.38 38.89, 54.7 45.95, 50 49.86 C45.3 53.78, 38.05 56.25, 31.6 56.25 C25.14 56.25, 16.38 53.73, 11.27 49.87 C6.16 46.02, 1.92 38.8, 0.93 33.11 C-0.06 27.41, 2.29 20.88, 5.32 15.69 C8.34 10.5, 13.23 4.07, 19.09 1.96 C24.94 -0.14, 37.01 3.16, 40.43 3.06 C43.86 2.95, 39.64 1.37, 39.64 1.34" stroke="#000000" stroke-width="1" fill="none"></path></g><g stroke-linecap="round"><g transform="translate(1116.6643860030335 389.73204197718337) rotate(0 3.089537900765322 41.43403873112575)"><path d="M1.15 -0.64 C1.84 12.83, 3.15 68.16, 3.64 81.98 M0.29 1.63 C1.4 15.82, 5.42 69.82, 5.89 83.51" stroke="#000000" stroke-width="1" fill="none"></path></g></g><g stroke-linecap="round"><g transform="translate(1121.6738242202985 473.58898199988255) rotate(0 -15.512267916433984 26.934545364924674)"><path d="M0.42 0.56 C-4.73 9.3, -25.13 43.97, -30.44 52.44 M-0.82 -0.19 C-6.18 8.76, -26.72 45.32, -31.44 54.05" stroke="#000000" stroke-width="1" fill="none"></path></g></g><g stroke-linecap="round"><g transform="translate(1125.3595720894841 470.03831262292863) rotate(0 24.883189873449396 30.268342254951108)"><path d="M-0.56 -0.32 C7.98 10.08, 41.71 51.72, 50.33 62.08 M1.35 -1.54 C9.78 8.56, 40.96 50.18, 49.16 60.39" stroke="#000000" stroke-width="1" fill="none"></path></g></g><g stroke-linecap="round"><g transform="translate(1083.532461908087 414.4813812372431) rotate(0 40.90524575383415 0.6101415489967223)"><path d="M-0.47 1.07 C13.16 1.42, 68.37 1.68, 82.28 1.4 M1.49 0.58 C14.91 0.67, 67.8 -0.22, 81.31 -0.3" stroke="#000000" stroke-width="1" fill="none"></path></g></g><g transform="translate(1102 533.4403018951416) rotate(0 23 12.5)"><text x="23" y="18" font-family="Virgil, Segoe UI Emoji" font-size="20px" fill="#000000" text-anchor="middle" style="white-space: pre;" direction="ltr">User</text></g><g stroke-linecap="round"><g transform="translate(719 409.4403018951416) rotate(0 186.02084431312971 7.446565261743956)"><path d="M-0.44 0.14 C61.75 2.75, 310.08 12.05, 372.48 14.81 M1.53 -0.84 C63.57 1.95, 309.22 13.14, 371.26 15.73" stroke="#000000" stroke-width="1" fill="none"></path></g><g transform="translate(719 409.4403018951416) rotate(0 186.02084431312971 7.446565261743956)"><path d="M342.87 23.87 C347.8 24.25, 358 20.74, 372.28 16.24 M343.37 24.52 C353.51 22.21, 361.88 17.89, 370.82 16.26" stroke="#000000" stroke-width="1" fill="none"></path></g><g transform="translate(719 409.4403018951416) rotate(0 186.02084431312971 7.446565261743956)"><path d="M343.77 3.37 C348.33 8.81, 358.31 10.36, 372.28 16.24 M344.27 4.02 C353.91 8.86, 361.96 11.68, 370.82 16.26" stroke="#000000" stroke-width="1" fill="none"></path></g></g><g transform="translate(847.5 391.4403018951416) rotate(0 101.5 12.5)"><text x="101.5" y="18" font-family="Virgil, Segoe UI Emoji" font-size="20px" fill="#000000" text-anchor="middle" style="white-space: pre;" direction="ltr">clusterctl get config</text></g><g stroke-linecap="round"><g transform="translate(1102 458.4403018951416) rotate(0 -142.9370955977589 28.35840058065952)"><path d="M0.68 0.75 C-47.23 10.09, -238.52 46.8, -286.56 55.97" stroke="#000000" stroke-width="1.5" fill="none" stroke-dasharray="1.5 7"></path></g></g><g transform="translate(837 478.38242197036743) rotate(0 127 12.5)"><text x="127" y="18" font-family="Virgil, Segoe UI Emoji" font-size="20px" fill="#000000" text-anchor="middle" style="white-space: pre;" direction="ltr">User talks to cluster EP</text></g></svg>